<mxfile host="app.diagrams.net" agent="Mozilla/5.0 (Windows NT 10.0; Win64; x64) AppleWebKit/537.36 (KHTML, like Gecko) Chrome/139.0.0.0 Safari/537.36" version="28.1.1">
  <diagram name="Page-1" id="ATAHoetQ3oX8HpCTOsSI">
    <mxGraphModel dx="1042" dy="608" grid="1" gridSize="10" guides="1" tooltips="1" connect="1" arrows="1" fold="1" page="1" pageScale="1" pageWidth="850" pageHeight="1100" math="0" shadow="0">
      <root>
        <mxCell id="0" />
        <mxCell id="1" parent="0" />
        <mxCell id="5hyyLHE0SYxDES4_KzYO-1" value="Laundry Bula" style="swimlane;childLayout=stackLayout;resizeParent=1;resizeParentMax=0;startSize=20;html=1;" vertex="1" parent="1">
          <mxGeometry x="250" y="80" width="360" height="520" as="geometry">
            <mxRectangle x="250.00000000000045" y="80" width="60" height="30" as="alternateBounds" />
          </mxGeometry>
        </mxCell>
        <mxCell id="5hyyLHE0SYxDES4_KzYO-2" value="User" style="swimlane;startSize=20;html=1;" vertex="1" parent="5hyyLHE0SYxDES4_KzYO-1">
          <mxGeometry y="20" width="120" height="500" as="geometry">
            <mxRectangle y="20" width="40" height="460" as="alternateBounds" />
          </mxGeometry>
        </mxCell>
        <mxCell id="5hyyLHE0SYxDES4_KzYO-6" value="" style="ellipse;shape=doubleEllipse;html=1;dashed=0;whiteSpace=wrap;aspect=fixed;strokeColor=#000000;" vertex="1" parent="5hyyLHE0SYxDES4_KzYO-2">
          <mxGeometry x="45" y="30" width="30" height="30" as="geometry" />
        </mxCell>
        <mxCell id="5hyyLHE0SYxDES4_KzYO-9" value="&lt;span style=&quot;font-size: 10px;&quot;&gt;Membuat pesanan laundry&lt;/span&gt;" style="rounded=1;whiteSpace=wrap;html=1;" vertex="1" parent="5hyyLHE0SYxDES4_KzYO-2">
          <mxGeometry x="15" y="90" width="90" height="30" as="geometry" />
        </mxCell>
        <mxCell id="5hyyLHE0SYxDES4_KzYO-11" value="&lt;font style=&quot;font-size: 10px;&quot;&gt;Membayar Laundry&lt;/font&gt;" style="rounded=1;whiteSpace=wrap;html=1;" vertex="1" parent="5hyyLHE0SYxDES4_KzYO-2">
          <mxGeometry x="14.999999999999545" y="150" width="90" height="30" as="geometry" />
        </mxCell>
        <mxCell id="5hyyLHE0SYxDES4_KzYO-28" value="&lt;font style=&quot;font-size: 8px;&quot;&gt;Menerima status pesanan laundry&amp;nbsp;&lt;/font&gt;" style="rounded=1;whiteSpace=wrap;html=1;" vertex="1" parent="5hyyLHE0SYxDES4_KzYO-2">
          <mxGeometry x="15" y="330" width="90" height="30" as="geometry" />
        </mxCell>
        <mxCell id="5hyyLHE0SYxDES4_KzYO-5" value="" style="ellipse;html=1;shape=endState;fillColor=#000000;strokeColor=#ff0000;" vertex="1" parent="5hyyLHE0SYxDES4_KzYO-2">
          <mxGeometry x="45" y="390" width="30" height="30" as="geometry" />
        </mxCell>
        <mxCell id="5hyyLHE0SYxDES4_KzYO-3" value="Kasir" style="swimlane;startSize=20;html=1;" vertex="1" parent="5hyyLHE0SYxDES4_KzYO-1">
          <mxGeometry x="120" y="20" width="120" height="500" as="geometry" />
        </mxCell>
        <mxCell id="5hyyLHE0SYxDES4_KzYO-15" value="&lt;font style=&quot;font-size: 9px;&quot;&gt;Menerima transaksi pembayaran&lt;/font&gt;" style="rounded=1;whiteSpace=wrap;html=1;" vertex="1" parent="5hyyLHE0SYxDES4_KzYO-3">
          <mxGeometry x="19.999999999999545" y="150" width="90" height="30" as="geometry" />
        </mxCell>
        <mxCell id="5hyyLHE0SYxDES4_KzYO-20" value="&lt;font style=&quot;font-size: 9px;&quot;&gt;Mengirim informasi pesanan&amp;nbsp;&lt;/font&gt;" style="rounded=1;whiteSpace=wrap;html=1;" vertex="1" parent="5hyyLHE0SYxDES4_KzYO-3">
          <mxGeometry x="19.999999999999545" y="210" width="90" height="30" as="geometry" />
        </mxCell>
        <mxCell id="5hyyLHE0SYxDES4_KzYO-4" value="Pegawai" style="swimlane;startSize=20;html=1;" vertex="1" parent="5hyyLHE0SYxDES4_KzYO-1">
          <mxGeometry x="240" y="20" width="120" height="500" as="geometry" />
        </mxCell>
        <mxCell id="5hyyLHE0SYxDES4_KzYO-18" value="&lt;font style=&quot;font-size: 8px;&quot;&gt;Mengerjakan pesanan laundry&lt;/font&gt;" style="rounded=1;whiteSpace=wrap;html=1;" vertex="1" parent="5hyyLHE0SYxDES4_KzYO-4">
          <mxGeometry x="14.999999999999545" y="210" width="90" height="30" as="geometry" />
        </mxCell>
        <mxCell id="5hyyLHE0SYxDES4_KzYO-24" value="&lt;font style=&quot;font-size: 8px;&quot;&gt;Mengubah status pesanan laundry&lt;/font&gt;" style="rounded=1;whiteSpace=wrap;html=1;" vertex="1" parent="5hyyLHE0SYxDES4_KzYO-4">
          <mxGeometry x="14.999999999999545" y="270" width="90" height="30" as="geometry" />
        </mxCell>
        <mxCell id="5hyyLHE0SYxDES4_KzYO-26" value="&lt;font style=&quot;font-size: 8px;&quot;&gt;Mengirim status pesanan laundry&lt;/font&gt;" style="rounded=1;whiteSpace=wrap;html=1;" vertex="1" parent="5hyyLHE0SYxDES4_KzYO-4">
          <mxGeometry x="14.999999999999545" y="330" width="90" height="30" as="geometry" />
        </mxCell>
        <mxCell id="5hyyLHE0SYxDES4_KzYO-22" value="" style="endArrow=classic;html=1;rounded=0;exitX=1;exitY=0.5;exitDx=0;exitDy=0;entryX=0;entryY=0.5;entryDx=0;entryDy=0;" edge="1" parent="5hyyLHE0SYxDES4_KzYO-1" source="5hyyLHE0SYxDES4_KzYO-20" target="5hyyLHE0SYxDES4_KzYO-18">
          <mxGeometry width="50" height="50" relative="1" as="geometry">
            <mxPoint x="239.99999999999955" y="240" as="sourcePoint" />
            <mxPoint x="269.99999999999955" y="240" as="targetPoint" />
          </mxGeometry>
        </mxCell>
        <mxCell id="5hyyLHE0SYxDES4_KzYO-27" value="" style="endArrow=classic;html=1;rounded=0;exitX=0;exitY=0.5;exitDx=0;exitDy=0;entryX=1;entryY=0.5;entryDx=0;entryDy=0;" edge="1" parent="5hyyLHE0SYxDES4_KzYO-1" source="5hyyLHE0SYxDES4_KzYO-26" target="5hyyLHE0SYxDES4_KzYO-28">
          <mxGeometry width="50" height="50" relative="1" as="geometry">
            <mxPoint x="210" y="340" as="sourcePoint" />
            <mxPoint x="210" y="370" as="targetPoint" />
          </mxGeometry>
        </mxCell>
        <mxCell id="5hyyLHE0SYxDES4_KzYO-7" value="" style="endArrow=classic;html=1;rounded=0;exitX=0.5;exitY=1;exitDx=0;exitDy=0;" edge="1" parent="1" source="5hyyLHE0SYxDES4_KzYO-6">
          <mxGeometry width="50" height="50" relative="1" as="geometry">
            <mxPoint x="380" y="290" as="sourcePoint" />
            <mxPoint x="310" y="190" as="targetPoint" />
          </mxGeometry>
        </mxCell>
        <mxCell id="5hyyLHE0SYxDES4_KzYO-10" value="" style="endArrow=classic;html=1;rounded=0;exitX=0.5;exitY=1;exitDx=0;exitDy=0;" edge="1" parent="1" source="5hyyLHE0SYxDES4_KzYO-9">
          <mxGeometry width="50" height="50" relative="1" as="geometry">
            <mxPoint x="320" y="260" as="sourcePoint" />
            <mxPoint x="310" y="250" as="targetPoint" />
          </mxGeometry>
        </mxCell>
        <mxCell id="5hyyLHE0SYxDES4_KzYO-13" value="" style="endArrow=classic;html=1;rounded=0;exitX=1;exitY=0.5;exitDx=0;exitDy=0;" edge="1" parent="1" source="5hyyLHE0SYxDES4_KzYO-11">
          <mxGeometry width="50" height="50" relative="1" as="geometry">
            <mxPoint x="410" y="280" as="sourcePoint" />
            <mxPoint x="390" y="265" as="targetPoint" />
          </mxGeometry>
        </mxCell>
        <mxCell id="5hyyLHE0SYxDES4_KzYO-21" value="" style="endArrow=classic;html=1;rounded=0;exitX=0.5;exitY=1;exitDx=0;exitDy=0;" edge="1" parent="1" source="5hyyLHE0SYxDES4_KzYO-15">
          <mxGeometry width="50" height="50" relative="1" as="geometry">
            <mxPoint x="430" y="300" as="sourcePoint" />
            <mxPoint x="435" y="310" as="targetPoint" />
          </mxGeometry>
        </mxCell>
        <mxCell id="5hyyLHE0SYxDES4_KzYO-23" value="" style="endArrow=classic;html=1;rounded=0;exitX=0.5;exitY=1;exitDx=0;exitDy=0;" edge="1" parent="1" source="5hyyLHE0SYxDES4_KzYO-18">
          <mxGeometry width="50" height="50" relative="1" as="geometry">
            <mxPoint x="530" y="370" as="sourcePoint" />
            <mxPoint x="550" y="370" as="targetPoint" />
          </mxGeometry>
        </mxCell>
        <mxCell id="5hyyLHE0SYxDES4_KzYO-25" value="" style="endArrow=classic;html=1;rounded=0;exitX=0.5;exitY=1;exitDx=0;exitDy=0;" edge="1" parent="1" source="5hyyLHE0SYxDES4_KzYO-24">
          <mxGeometry width="50" height="50" relative="1" as="geometry">
            <mxPoint x="550" y="410" as="sourcePoint" />
            <mxPoint x="550" y="430" as="targetPoint" />
          </mxGeometry>
        </mxCell>
        <mxCell id="5hyyLHE0SYxDES4_KzYO-29" value="" style="endArrow=classic;html=1;rounded=0;exitX=0.5;exitY=1;exitDx=0;exitDy=0;" edge="1" parent="1" source="5hyyLHE0SYxDES4_KzYO-28">
          <mxGeometry width="50" height="50" relative="1" as="geometry">
            <mxPoint x="450" y="500" as="sourcePoint" />
            <mxPoint x="310" y="490" as="targetPoint" />
          </mxGeometry>
        </mxCell>
      </root>
    </mxGraphModel>
  </diagram>
</mxfile>
